<svg width="1024" height="346" viewBox="0 0 1024 346" xmlns="http://www.w3.org/2000/svg" xmlns:xlink="http://www.w3.org/1999/xlink"><title>bg</title><defs><path d="M164.105 26.75l11.42 7.189-1.443 14.796-11.45-8.957 1.473-13.028z" id="a"/><mask id="i" x="0" y="0" width="12.892" height="21.985" fill="#fff"><use xlink:href="#a"/></mask><path id="b" d="M126 153v19h-19"/><mask id="j" x="0" y="0" width="19" height="19" fill="#fff"><use xlink:href="#b"/></mask><path id="c" d="M383 180h13v26h-13z"/><mask id="k" x="0" y="0" width="13" height="26" fill="#fff"><use xlink:href="#c"/></mask><path d="M560.105 26.75l11.42 7.189-1.443 14.796-11.45-8.957 1.473-13.028z" id="d"/><mask id="l" x="0" y="0" width="12.892" height="21.985" fill="#fff"><use xlink:href="#d"/></mask><path id="e" d="M522 153v19h-19"/><mask id="m" x="0" y="0" width="19" height="19" fill="#fff"><use xlink:href="#e"/></mask><path id="f" d="M779 180h13v26h-13z"/><mask id="n" x="0" y="0" width="13" height="26" fill="#fff"><use xlink:href="#f"/></mask><path d="M956.105 26.75l11.42 7.189-1.443 14.796-11.45-8.957 1.473-13.028z" id="g"/><mask id="o" x="0" y="0" width="12.892" height="21.985" fill="#fff"><use xlink:href="#g"/></mask><path id="h" d="M918 153v19h-19"/><mask id="p" x="0" y="0" width="19" height="19" fill="#fff"><use xlink:href="#h"/></mask><linearGradient x1="50%" y1="0%" x2="50%" y2="83.085%" id="q"><stop stop-color="#FFF" stop-opacity="0" offset="0%"/><stop stop-color="#FFF" offset="100%"/></linearGradient></defs><g fill="none" fill-rule="evenodd" opacity=".5"><path fill="#D8E1FC" d="M0 0h1024v307H0z"/><path fill="#BACCFF" d="M106.219 88.719l6.062 3.5-3.5 6.062-6.062-3.5z"/><path stroke="#8FABFF" stroke-width="3" d="M232.5 148l8.227 4.75v9.5L232.5 167l-8.227-4.75v-9.5z"/><path d="M255 227l14.52 9.705M260 8l2.503 17.284M32 147.822L43.857 135m307.926-92.236l9.601-3.306" stroke="#8FABFF" stroke-width="3" stroke-linecap="square"/><path d="M327.325 74.25c-2.84-4.92-9.132-6.606-14.053-3.766-4.92 2.841-6.606 9.133-3.765 14.054" stroke="#BACCFF" stroke-width="3"/><circle fill="#BACCFF" cx="82.5" cy="3.5" r="3.5"/><path stroke="#BACCFF" stroke-width="3" d="M11.761 79.13L10.176 58 23.7 61.623zm159.936 193.674l-13.008-7.27 15.801-7.368z"/><path d="M70.67 241.288l-5.146 2.714-5.213-3.727 5.812-2.344 4.546 3.357z" fill="#BACCFF"/><use stroke="#8FABFF" mask="url(#i)" stroke-width="6" transform="rotate(-158 169.078 37.743)" xlink:href="#a"/><path fill="#8FABFF" d="M229.277 93.135L225 85.279l7.995-.279z"/><path fill="#BACCFF" d="M177.309 197.309l8.485 2.828-5.657 5.657z"/><use stroke="#8FABFF" mask="url(#j)" stroke-width="6" xlink:href="#b"/><circle stroke="#BACCFF" stroke-width="3" cx="297" cy="269" r="7"/><path stroke="#BACCFF" stroke-width="3" d="M315.786 175.928l-3.619-6.668 6.493-3.402-3.462-6.511 6.2-3.124-3.184-6.74"/><use stroke="#BACCFF" mask="url(#k)" stroke-width="6" transform="rotate(-25 389.5 193)" xlink:href="#c"/><path fill="#BACCFF" d="M502.219 88.719l6.062 3.5-3.5 6.062-6.062-3.5z"/><path stroke="#BACCFF" stroke-width="3" d="M628.5 148l8.227 4.75v9.5L628.5 167l-8.227-4.75v-9.5z"/><path d="M651 227l14.52 9.705M656 8l2.503 17.284M428 147.822L439.857 135m307.926-92.236l9.601-3.306" stroke="#BACCFF" stroke-width="3" stroke-linecap="square"/><path d="M723.325 74.25c-2.84-4.92-9.132-6.606-14.053-3.766-4.92 2.841-6.606 9.133-3.765 14.054" stroke="#8FABFF" stroke-width="3"/><circle fill="#BACCFF" cx="478.5" cy="3.5" r="3.5"/><path stroke="#BACCFF" stroke-width="3" d="M407.761 79.13L406.176 58l13.523 3.623zm159.936 193.674l-13.008-7.27 15.801-7.368z"/><path d="M466.67 241.288l-5.146 2.714-5.213-3.727 5.812-2.344 4.546 3.357z" fill="#BACCFF"/><use stroke="#BACCFF" mask="url(#l)" stroke-width="6" transform="rotate(-158 565.078 37.743)" xlink:href="#d"/><path fill="#8FABFF" d="M625.277 93.135L621 85.279l7.995-.279z"/><path fill="#BACCFF" d="M573.309 197.309l8.485 2.828-5.657 5.657z"/><use stroke="#BACCFF" mask="url(#m)" stroke-width="6" xlink:href="#e"/><circle stroke="#BACCFF" stroke-width="3" cx="693" cy="269" r="7"/><path stroke="#8FABFF" stroke-width="3" d="M711.786 175.928l-3.619-6.668 6.493-3.402-3.462-6.511 6.2-3.124-3.184-6.74"/><use stroke="#BACCFF" mask="url(#n)" stroke-width="6" transform="rotate(-25 785.5 193)" xlink:href="#f"/><path fill="#BACCFF" d="M898.219 88.719l6.062 3.5-3.5 6.062-6.062-3.5z"/><path d="M824 147.822L835.857 135" stroke="#BACCFF" stroke-width="3" stroke-linecap="square"/><circle fill="#BACCFF" cx="874.5" cy="3.5" r="3.5"/><path stroke="#BACCFF" stroke-width="3" d="M803.761 79.13L802.176 58l13.523 3.623z"/><path stroke="#8FABFF" stroke-width="3" d="M963.697 272.804l-13.008-7.27 15.801-7.368z"/><path d="M862.67 241.288l-5.146 2.714-5.213-3.727 5.812-2.344 4.546 3.357z" fill="#BACCFF"/><use stroke="#8FABFF" mask="url(#o)" stroke-width="6" transform="rotate(-158 961.078 37.743)" xlink:href="#g"/><path fill="#BACCFF" d="M1021.277 93.135L1017 85.279l7.995-.279zm-51.968 104.174l8.485 2.828-5.657 5.657z"/><use stroke="#8FABFF" mask="url(#p)" stroke-width="6" xlink:href="#h"/><path fill="url(#q)" d="M0 0h1024v346H0z"/></g></svg>